<svg xmlns="http://www.w3.org/2000/svg" viewBox="0 0 96 96" fill="none">
  <rect width="96" height="96" rx="48" fill="#F8F5F1"/>
  <path d="M48 18C40 30 38 40 40 49C42 61 48 69 48 69C48 69 54 61 56 49C58 40 56 30 48 18Z" stroke="#C8A96B" stroke-width="3" stroke-linecap="round" stroke-linejoin="round"/>
  <path d="M34 31C28 43 28 55 36 64C42 70 48 73 48 73C48 73 48 62 44 52C40 44 37 37 34 31Z" stroke="#C8A96B" stroke-width="3" stroke-linecap="round" stroke-linejoin="round"/>
  <path d="M62 31C68 43 68 55 60 64C54 70 48 73 48 73C48 73 48 62 52 52C56 44 59 37 62 31Z" stroke="#C8A96B" stroke-width="3" stroke-linecap="round" stroke-linejoin="round"/>
  <path d="M24 48C36 48 46 56 49 70C49 70 36 70 28 63C22 57 21 52 24 48Z" stroke="#C8A96B" stroke-width="3" stroke-linecap="round" stroke-linejoin="round"/>
  <path d="M72 48C60 48 50 56 47 70C47 70 60 70 68 63C74 57 75 52 72 48Z" stroke="#C8A96B" stroke-width="3" stroke-linecap="round" stroke-linejoin="round"/>
</svg>
