<svg xmlns="http://www.w3.org/2000/svg" viewBox="0 0 520 260" fill="none">
  <rect width="520" height="260" rx="130" fill="#F8F5F1"/>
  <circle cx="260" cy="86" r="54" stroke="#C8A96B" stroke-width="1.5" opacity="0.45"/>
  <path d="M260 40C249 55 245 68 248 80C251 96 260 108 260 108C260 108 269 96 272 80C275 68 271 55 260 40Z" stroke="#C8A96B" stroke-width="2.5" stroke-linecap="round" stroke-linejoin="round"/>
  <path d="M238 58C229 74 229 90 239 102C248 112 260 116 260 116C260 116 259 101 253 87C248 76 242 66 238 58Z" stroke="#C8A96B" stroke-width="2.5" stroke-linecap="round" stroke-linejoin="round"/>
  <path d="M282 58C291 74 291 90 281 102C272 112 260 116 260 116C260 116 261 101 267 87C272 76 278 66 282 58Z" stroke="#C8A96B" stroke-width="2.5" stroke-linecap="round" stroke-linejoin="round"/>
  <path d="M220 82C234 82 248 91 256 104C263 116 263 128 263 128C263 128 244 128 232 119C221 110 216 96 220 82Z" stroke="#C8A96B" stroke-width="2.5" stroke-linecap="round" stroke-linejoin="round"/>
  <path d="M300 82C286 82 272 91 264 104C257 116 257 128 257 128C257 128 276 128 288 119C299 110 304 96 300 82Z" stroke="#C8A96B" stroke-width="2.5" stroke-linecap="round" stroke-linejoin="round"/>
  <path d="M218 130C238 140 282 140 302 130" stroke="#C8A96B" stroke-width="2.5" stroke-linecap="round"/>
  <text x="260" y="178" text-anchor="middle" font-family="Cormorant Garamond, Georgia, serif" font-size="46" font-weight="300" letter-spacing="1" fill="#B8904F">shakti loto</text>
  <text x="260" y="207" text-anchor="middle" font-family="Montserrat, Arial, sans-serif" font-size="11" font-weight="300" letter-spacing="4" fill="#5A4636">UN CAMINO DE REGRESO</text>
</svg>
